<?xml version="1.0" encoding="utf-8"?>
<!-- Generator: Adobe Illustrator 16.0.0, SVG Export Plug-In . SVG Version: 6.00 Build 0)  -->
<!DOCTYPE svg PUBLIC "-//W3C//DTD SVG 1.1//EN" "http://www.w3.org/Graphics/SVG/1.1/DTD/svg11.dtd">
<svg version="1.1" id="Layer_1" xmlns="http://www.w3.org/2000/svg" xmlns:xlink="http://www.w3.org/1999/xlink" x="0px" y="0px"
	 width="612px" height="217.978px" viewBox="0 286.95 612 217.978" enable-background="new 0 286.95 612 217.978"
	 xml:space="preserve">
<polygon id="XMLID_10_" fill="#686B82" points="99.354,387.892 98.963,387.892 84.725,336.334 60.716,336.334 46.575,387.794 
	46.185,387.794 30.505,336.334 0,336.334 32.41,432.391 57.957,432.391 72.488,378.879 72.782,378.879 87.582,432.391 
	113.129,432.391 145.539,336.334 115.132,336.334 "/>
<rect id="XMLID_9_" x="158.458" y="336.334" fill="#686B82" width="30.505" height="96.057"/>
<path id="XMLID_8_" fill="#686B82" d="M269.951,334.502L269.951,334.502c-11.088,0-21.419,4.592-28.966,13.433h-0.195v-11.601
	h-30.603v96.057h30.603v-48.236c0-14.947,7.181-22.225,17.609-22.225c10.233,0,15.289,4.591,15.289,20.417v50.043h30.603v-57.614
	C304.266,344.467,289.929,334.502,269.951,334.502"/>
<path id="XMLID_7_" fill="#686B82" d="M474.79,314.866v22.347h-12.993v6.423h12.993v88.754h6.594v-88.779h32.508v-6.423h-32.508
	v-21.957c0-16.095,7.645-21.761,17.316-21.761c6.888,0,12.236,1.637,17.683,4.787l1.44-6.13c-5.544-3.175-11.479-5.178-19.318-5.178
	C484.241,286.95,474.79,295.498,474.79,314.866"/>
<polygon id="XMLID_6_" fill="#686B82" points="604.844,337.188 569.161,421.938 568.697,421.938 530.157,337.188 522.684,337.188 
	565.352,431.146 548.426,471.199 555.68,471.199 612,337.188 "/>
<path id="XMLID_5_" fill="#686B82" d="M173.748,286.95c-10.551,0-19.124,8.573-19.124,19.172s8.573,19.172,19.124,19.172
	s19.124-8.573,19.124-19.172C192.871,295.547,184.298,286.95,173.748,286.95"/>
<path id="XMLID_2_" fill="#686B82" d="M451.221,379.832l-3.858-3.957l-6.741-6.887l1.393-9.549l0.806-5.496l-5.129-2.051
	l-8.938-3.542l-2.589-9.281l-1.49-5.349l-5.52,0.22l-9.623,0.391l-6.13-7.425l-3.518-4.274l-4.957,2.467l-8.622,4.298l-8.621-4.298
	l-4.958-2.467l-3.517,4.274l-6.131,7.425l-9.623-0.391l-5.52-0.22l-1.489,5.349l-2.589,9.281l-8.939,3.542l-5.153,2.051l0.807,5.496
	l1.416,9.549l-6.74,6.887l-3.859,3.957l2.955,4.689l5.129,8.133l-3.346,9.037l-1.93,5.202l4.616,3.077l8.011,5.349l0.61,9.623
	l0.342,5.544l5.446,0.929l9.477,1.611l2.735,5.227v35.78l0,0v30.896l30.822-30.896l30.822,30.896v-17.462v-13.458v-35.683
	l2.784-5.324l9.477-1.611l5.446-0.929l0.342-5.52l0.61-9.623l8.012-5.349l4.615-3.077l-1.904-5.202l-3.347-9.037l5.153-8.157
	L451.221,379.832z M439.913,404.133l-10.893,7.254l-0.831,13.091l-12.896,2.198l-6.057,11.625l-12.676-3.248l-10.258,8.133
	l-10.258-8.133l-12.676,3.248l-6.057-11.625l-12.896-2.198l-0.83-13.091l-10.894-7.254l4.567-12.285l-7.01-11.088l9.159-9.378
	l-1.905-12.969l12.163-4.836l3.517-12.627l13.066,0.538l8.354-10.111l11.723,5.837l11.724-5.837l8.353,10.111l13.066-0.538
	l3.517,12.627l12.163,4.836l-1.905,12.969l9.159,9.378l-7.01,11.088L439.913,404.133z"/>
</svg>
