<?xml version="1.0" encoding="utf-8"?>
<!-- Generator: Adobe Illustrator 19.0.0, SVG Export Plug-In . SVG Version: 6.00 Build 0)  -->
<svg version="1.1" id="Layer_1" xmlns="http://www.w3.org/2000/svg" xmlns:xlink="http://www.w3.org/1999/xlink" x="0px" y="0px"
	 viewBox="0 0 2505.8 901.4" style="enable-background:new 0 0 2505.8 901.4;" xml:space="preserve">
<style type="text/css">
	.st0{fill:#FFFFFF;}
</style>
<polygon id="XMLID_10_" class="st0" points="406.8,417.5 405.2,417.5 346.9,206.4 248.6,206.4 190.7,417.1 189.1,417.1 124.9,206.4 
	0,206.4 132.7,599.7 237.3,599.7 296.8,380.6 298,380.6 358.6,599.7 463.2,599.7 595.9,206.4 471.4,206.4 "/>
<rect id="XMLID_9_" x="648.8" y="206.4" class="st0" width="124.9" height="393.3"/>
<path id="XMLID_8_" class="st0" d="M1105.3,198.9L1105.3,198.9c-45.4,0-87.7,18.8-118.6,55h-0.8v-47.5H860.6v393.3h125.3V402.2
	c0-61.2,29.4-91,72.1-91c41.9,0,62.6,18.8,62.6,83.6v204.9h125.3V363.8C1245.8,239.7,1187.1,198.9,1105.3,198.9"/>
<path id="XMLID_7_" class="st0" d="M1944,118.5v91.5h-53.2v26.3h53.2l0,363.4h27V236.2h133.1v-26.3H1971V120
	c0-65.9,31.3-89.1,70.9-89.1c28.2,0,50.1,6.7,72.4,19.6l5.9-25.1c-22.7-13-47-21.2-79.1-21.2C1982.7,4.2,1944,39.2,1944,118.5"/>
<polygon id="XMLID_6_" class="st0" points="2476.5,209.9 2330.4,556.9 2328.5,556.9 2170.7,209.9 2140.1,209.9 2314.8,594.6 
	2245.5,758.6 2275.2,758.6 2505.8,209.9 "/>
<path id="XMLID_5_" class="st0" d="M711.4,4.2c-43.2,0-78.3,35.1-78.3,78.5c0,43.4,35.1,78.5,78.3,78.5c43.2,0,78.3-35.1,78.3-78.5
	C789.7,39.4,754.6,4.2,711.4,4.2"/>
<path id="XMLID_2_" class="st0" d="M1847.5,384.5l-15.8-16.2l-27.6-28.2l5.7-39.1l3.3-22.5l-21-8.4l-36.6-14.5l-10.6-38l-6.1-21.9
	l-22.6,0.9l-39.4,1.6l-25.1-30.4l-14.4-17.5l-20.3,10.1l-35.3,17.6l-35.3-17.6l-20.3-10.1l-14.4,17.5l-25.1,30.4l-39.4-1.6
	l-22.6-0.9l-6.1,21.9l-10.6,38l-36.6,14.5l-21.1,8.4l3.3,22.5l5.8,39.1l-27.6,28.2l-15.8,16.2l12.1,19.2L1349,437l-13.7,37
	l-7.9,21.3l18.9,12.6l32.8,21.9l2.5,39.4l1.4,22.7l22.3,3.8l38.8,6.6l11.2,21.4v146.5h0v126.5l126.2-126.5l126.2,126.5v-71.5v-55.1
	V624l11.4-21.8l38.8-6.6l22.3-3.8l1.4-22.6l2.5-39.4l32.8-21.9l18.9-12.6L1828,474l-13.7-37l21.1-33.4L1847.5,384.5z M1801.2,484
	l-44.6,29.7l-3.4,53.6l-52.8,9l-24.8,47.6l-51.9-13.3l-42,33.3l-42-33.3l-51.9,13.3l-24.8-47.6l-52.8-9l-3.4-53.6l-44.6-29.7
	l18.7-50.3l-28.7-45.4l37.5-38.4l-7.8-53.1l49.8-19.8l14.4-51.7l53.5,2.2l34.2-41.4l48,23.9l48-23.9l34.2,41.4l53.5-2.2l14.4,51.7
	l49.8,19.8l-7.8,53.1l37.5,38.4l-28.7,45.4L1801.2,484z"/>
</svg>
